<svg xmlns="http://www.w3.org/2000/svg" id="a3fec48f-3481-4190-9b24-b4f8cfdaa861" data-name="Layer 1" width="888" height="677.20707" viewBox="0 0 888 677.20707"><title>walking_outside</title><path d="M1043.6747,508.0556A98.57952,98.57952,0,1,0,854.45407,546.865c-.0964-.10719-.196-.21147-.29192-.31907a98.666,98.666,0,0,0,17.95428,27.78281c.02242.02466.04544.04871.0679.07338.6056.66,1.21467,1.3166,1.8378,1.9599a98.28015,98.28015,0,0,0,69.52936,30.25355L940.2204,787.54475h10.29127l-2.08284-119.41539,14.88675-7.83759-2.27095-4.31351-12.711,6.692-.97788-56.06376A98.57817,98.57817,0,0,0,1043.6747,508.0556Z" transform="translate(-156 -111.39647)" fill="#e6e6e6"/><path d="M751.08711,460.00819a115.52648,115.52648,0,1,0-221.74983,45.4812c-.113-.12561-.22968-.24782-.34211-.37392a115.62781,115.62781,0,0,0,21.04083,32.559c.02627.02891.05325.05709.07957.086.70971.7735,1.42348,1.54294,2.15374,2.29683a115.1756,115.1756,0,0,0,81.48225,35.45448l-3.90373,212.033h12.06045l-2.44091-139.94427,17.446-9.185-2.66136-5.05506-14.89615,7.84247-1.146-65.70176A115.5249,115.5249,0,0,0,751.08711,460.00819Z" transform="translate(-156 -111.39647)" fill="#e6e6e6"/><path d="M419.2589,414.81471A131.46682,131.46682,0,1,0,166.912,466.5714c-.12856-.14294-.26138-.282-.38931-.42552a131.58182,131.58182,0,0,0,23.944,37.05149c.02989.03289.06059.065.09055.09786.80763.88023,1.61989,1.75584,2.45091,2.61375a131.0676,131.0676,0,0,0,92.72517,40.34649L281.291,787.54475h13.72455L292.23788,628.291,312.091,617.83868l-3.02857-5.75256-16.95153,8.92457-1.30412-74.76729A131.465,131.465,0,0,0,419.2589,414.81471Z" transform="translate(-156 -111.39647)" fill="#e6e6e6"/><circle cx="756.68549" cy="85.97574" r="85.97574" fill="#ff6584"/><circle cx="245.55884" cy="187.61627" r="172.31169" fill="#6c63ff"/><path d="M274.32944,183.92206A172.32513,172.32513,0,0,0,561.45166,366.29171,172.32654,172.32654,0,1,1,274.32944,183.92206Z" transform="translate(-156 -111.39647)" opacity="0.2"/><polygon points="246.032 187.616 246.506 187.616 255.027 676.148 237.038 676.148 246.032 187.616" fill="#3f3d56"/><rect x="412.92005" y="552.74643" width="8.52091" height="32.1901" transform="translate(570.17726 -176.70103) rotate(62.23413)" fill="#3f3d56"/><path d="M665.11522,782.975s.62169-13.02675,13.36641-11.51257" transform="translate(-156 -111.39647)" fill="#3f3d56"/><circle cx="505.51414" cy="652.80329" r="6.37864" fill="#6c63ff"/><rect x="504.47624" y="663.54454" width="1.80054" height="12.60377" fill="#3f3d56"/><path d="M223.08289,781.17442s.62169-13.02675,13.36641-11.51256" transform="translate(-156 -111.39647)" fill="#3f3d56"/><circle cx="63.48181" cy="651.00275" r="6.37864" fill="#6c63ff"/><rect x="62.44391" y="661.744" width="1.80054" height="12.60377" fill="#3f3d56"/><path d="M327.51415,782.07469s.6217-13.02675,13.36642-11.51256" transform="translate(-156 -111.39647)" fill="#3f3d56"/><circle cx="167.91308" cy="651.90302" r="6.37864" fill="#6c63ff"/><rect x="166.87518" y="662.64427" width="1.80054" height="12.60377" fill="#3f3d56"/><path d="M605.24329,194.695l12.79484-10.23342c-9.93974-1.09662-14.02379,4.3243-15.69523,8.615-7.76533-3.22445-16.21882,1.00136-16.21882,1.00136l25.6001,9.29374A19.3721,19.3721,0,0,0,605.24329,194.695Z" transform="translate(-156 -111.39647)" fill="#3f3d56"/><path d="M799.827,298.93628l12.79483-10.23342c-9.93974-1.09662-14.02379,4.3243-15.69523,8.615-7.76533-3.22445-16.21881,1.00135-16.21881,1.00135l25.6001,9.29375A19.37224,19.37224,0,0,0,799.827,298.93628Z" transform="translate(-156 -111.39647)" fill="#3f3d56"/><path d="M589.95458,387.88881l12.79483-10.23342c-9.93974-1.09662-14.02379,4.3243-15.69523,8.615-7.76533-3.22445-16.21881,1.00136-16.21881,1.00136l25.6001,9.29374A19.37224,19.37224,0,0,0,589.95458,387.88881Z" transform="translate(-156 -111.39647)" fill="#3f3d56"/><path d="M839.65525,787.70327s.6217-13.02675,13.36642-11.51257" transform="translate(-156 -111.39647)" fill="#3f3d56"/><path d="M719.91941,787.70327s.62169-13.02675,13.36641-11.51257" transform="translate(-156 -111.39647)" fill="#3f3d56"/><path d="M283.2887,787.70327s.62169-13.02675,13.36641-11.51257" transform="translate(-156 -111.39647)" fill="#3f3d56"/><path d="M893.67142,787.70327s.6217-13.02675,13.36642-11.51257" transform="translate(-156 -111.39647)" fill="#3f3d56"/><path d="M868.46388,787.70327s.62169-13.02675,13.36641-11.51257" transform="translate(-156 -111.39647)" fill="#3f3d56"/><path d="M816.46505,787.70327s-.62169-13.02675-13.36641-11.51257" transform="translate(-156 -111.39647)" fill="#3f3d56"/><path d="M609.40307,787.70327s-.6217-13.02675-13.36642-11.51257" transform="translate(-156 -111.39647)" fill="#3f3d56"/><path d="M437.45159,787.70327s-.62169-13.02675-13.36641-11.51257" transform="translate(-156 -111.39647)" fill="#3f3d56"/><path d="M254.69688,787.70327s-.6217-13.02675-13.36641-11.51257" transform="translate(-156 -111.39647)" fill="#3f3d56"/><path d="M947.9044,787.70327s-.62169-13.02675-13.36641-11.51257" transform="translate(-156 -111.39647)" fill="#3f3d56"/><path d="M870.48122,788.60353s-.62169-13.02674-13.36641-11.51256" transform="translate(-156 -111.39647)" fill="#3f3d56"/><rect y="674.60353" width="888" height="2" fill="#3f3d56"/></svg>